<mxfile host="app.diagrams.net" modified="2022-10-15T15:19:21.589Z" agent="5.0 (Windows NT 10.0; WOW64) AppleWebKit/537.36 (KHTML, like Gecko) Chrome/106.0.0.0 Safari/537.36" etag="JT1NldxGFg2vhiAcHKg8" version="20.4.0" type="github">
  <diagram id="OWWxklyABD3rVcdSBqtR" name="Page-1">
    <mxGraphModel dx="1422" dy="715" grid="1" gridSize="10" guides="1" tooltips="1" connect="1" arrows="1" fold="1" page="1" pageScale="1" pageWidth="827" pageHeight="1169" math="0" shadow="0">
      <root>
        <mxCell id="0" />
        <mxCell id="1" parent="0" />
        <mxCell id="XHfKNl6-QycrOBSnLCWU-1" value="Pais" style="whiteSpace=wrap;html=1;align=center;" parent="1" vertex="1">
          <mxGeometry x="560" y="260" width="100" height="40" as="geometry" />
        </mxCell>
        <mxCell id="XHfKNl6-QycrOBSnLCWU-2" value="Equipo" style="whiteSpace=wrap;html=1;align=center;" parent="1" vertex="1">
          <mxGeometry x="120" y="480" width="100" height="40" as="geometry" />
        </mxCell>
        <mxCell id="XHfKNl6-QycrOBSnLCWU-3" value="problema" style="whiteSpace=wrap;html=1;align=center;" parent="1" vertex="1">
          <mxGeometry x="120" y="265" width="100" height="40" as="geometry" />
        </mxCell>
        <mxCell id="XHfKNl6-QycrOBSnLCWU-4" value="Nombre" style="ellipse;whiteSpace=wrap;html=1;align=center;" parent="1" vertex="1">
          <mxGeometry x="480" y="180" width="100" height="40" as="geometry" />
        </mxCell>
        <mxCell id="XHfKNl6-QycrOBSnLCWU-5" value="Cantidad de habitantes" style="ellipse;whiteSpace=wrap;html=1;align=center;" parent="1" vertex="1">
          <mxGeometry x="630" y="160" width="100" height="40" as="geometry" />
        </mxCell>
        <mxCell id="XHfKNl6-QycrOBSnLCWU-6" value="Continente" style="ellipse;whiteSpace=wrap;html=1;align=center;" parent="1" vertex="1">
          <mxGeometry x="680" y="200" width="100" height="40" as="geometry" />
        </mxCell>
        <mxCell id="XHfKNl6-QycrOBSnLCWU-7" value="codigo_pais" style="ellipse;whiteSpace=wrap;html=1;align=center;fontStyle=4;" parent="1" vertex="1">
          <mxGeometry x="530" y="140" width="100" height="40" as="geometry" />
        </mxCell>
        <mxCell id="XHfKNl6-QycrOBSnLCWU-8" value="" style="endArrow=none;html=1;rounded=0;" parent="1" source="XHfKNl6-QycrOBSnLCWU-1" target="XHfKNl6-QycrOBSnLCWU-4" edge="1">
          <mxGeometry relative="1" as="geometry">
            <mxPoint x="800" y="250" as="sourcePoint" />
            <mxPoint x="960" y="250" as="targetPoint" />
          </mxGeometry>
        </mxCell>
        <mxCell id="XHfKNl6-QycrOBSnLCWU-9" value="" style="endArrow=none;html=1;rounded=0;" parent="1" source="XHfKNl6-QycrOBSnLCWU-1" target="XHfKNl6-QycrOBSnLCWU-5" edge="1">
          <mxGeometry relative="1" as="geometry">
            <mxPoint x="603.6339746850579" y="270" as="sourcePoint" />
            <mxPoint x="545.5421355510725" y="199.00922732785034" as="targetPoint" />
          </mxGeometry>
        </mxCell>
        <mxCell id="XHfKNl6-QycrOBSnLCWU-10" value="" style="endArrow=none;html=1;rounded=0;" parent="1" source="XHfKNl6-QycrOBSnLCWU-1" target="XHfKNl6-QycrOBSnLCWU-6" edge="1">
          <mxGeometry relative="1" as="geometry">
            <mxPoint x="625.7142857142858" y="270" as="sourcePoint" />
            <mxPoint x="654.3226704419551" y="169.87065345315705" as="targetPoint" />
          </mxGeometry>
        </mxCell>
        <mxCell id="XHfKNl6-QycrOBSnLCWU-12" value="" style="endArrow=none;html=1;rounded=0;" parent="1" source="XHfKNl6-QycrOBSnLCWU-1" target="XHfKNl6-QycrOBSnLCWU-7" edge="1">
          <mxGeometry relative="1" as="geometry">
            <mxPoint x="644" y="270" as="sourcePoint" />
            <mxPoint x="718.3634466207625" y="208.0304611493649" as="targetPoint" />
          </mxGeometry>
        </mxCell>
        <mxCell id="XHfKNl6-QycrOBSnLCWU-13" value="Prioridad" style="ellipse;whiteSpace=wrap;html=1;align=center;" parent="1" vertex="1">
          <mxGeometry x="25" y="200" width="100" height="40" as="geometry" />
        </mxCell>
        <mxCell id="XHfKNl6-QycrOBSnLCWU-14" value="Nombre" style="ellipse;whiteSpace=wrap;html=1;align=center;" parent="1" vertex="1">
          <mxGeometry x="120" y="167.5" width="100" height="40" as="geometry" />
        </mxCell>
        <mxCell id="XHfKNl6-QycrOBSnLCWU-15" value="codigo_problema" style="ellipse;whiteSpace=wrap;html=1;align=center;fontStyle=4;" parent="1" vertex="1">
          <mxGeometry x="215" y="200" width="115" height="40" as="geometry" />
        </mxCell>
        <mxCell id="XHfKNl6-QycrOBSnLCWU-16" value="" style="endArrow=none;html=1;rounded=0;" parent="1" source="XHfKNl6-QycrOBSnLCWU-3" target="XHfKNl6-QycrOBSnLCWU-13" edge="1">
          <mxGeometry relative="1" as="geometry">
            <mxPoint x="105.71428571428578" y="255" as="sourcePoint" />
            <mxPoint x="35.54213555107253" y="194.00922732785034" as="targetPoint" />
          </mxGeometry>
        </mxCell>
        <mxCell id="XHfKNl6-QycrOBSnLCWU-17" value="" style="endArrow=none;html=1;rounded=0;" parent="1" source="XHfKNl6-QycrOBSnLCWU-3" target="XHfKNl6-QycrOBSnLCWU-14" edge="1">
          <mxGeometry relative="1" as="geometry">
            <mxPoint x="126.01488756999925" y="255" as="sourcePoint" />
            <mxPoint x="144.3226704419551" y="164.87065345315705" as="targetPoint" />
          </mxGeometry>
        </mxCell>
        <mxCell id="XHfKNl6-QycrOBSnLCWU-18" value="" style="endArrow=none;html=1;rounded=0;" parent="1" source="XHfKNl6-QycrOBSnLCWU-3" target="XHfKNl6-QycrOBSnLCWU-15" edge="1">
          <mxGeometry relative="1" as="geometry">
            <mxPoint x="145.008131695236" y="255" as="sourcePoint" />
            <mxPoint x="208.3634466207625" y="203.0304611493649" as="targetPoint" />
          </mxGeometry>
        </mxCell>
        <mxCell id="XHfKNl6-QycrOBSnLCWU-25" value="Id_equipo" style="ellipse;whiteSpace=wrap;html=1;align=center;fontStyle=4;" parent="1" vertex="1">
          <mxGeometry x="40" y="530" width="100" height="40" as="geometry" />
        </mxCell>
        <mxCell id="XHfKNl6-QycrOBSnLCWU-26" value="Denominacion" style="ellipse;whiteSpace=wrap;html=1;align=center;" parent="1" vertex="1">
          <mxGeometry x="120" y="565" width="100" height="40" as="geometry" />
        </mxCell>
        <mxCell id="XHfKNl6-QycrOBSnLCWU-27" value="Universidad" style="ellipse;whiteSpace=wrap;html=1;align=center;" parent="1" vertex="1">
          <mxGeometry x="200" y="525" width="100" height="40" as="geometry" />
        </mxCell>
        <mxCell id="XHfKNl6-QycrOBSnLCWU-28" value="" style="endArrow=none;html=1;rounded=0;" parent="1" source="XHfKNl6-QycrOBSnLCWU-2" target="XHfKNl6-QycrOBSnLCWU-25" edge="1">
          <mxGeometry relative="1" as="geometry">
            <mxPoint x="290" y="440" as="sourcePoint" />
            <mxPoint x="450" y="440" as="targetPoint" />
          </mxGeometry>
        </mxCell>
        <mxCell id="XHfKNl6-QycrOBSnLCWU-29" value="" style="endArrow=none;html=1;rounded=0;" parent="1" source="XHfKNl6-QycrOBSnLCWU-2" target="XHfKNl6-QycrOBSnLCWU-26" edge="1">
          <mxGeometry relative="1" as="geometry">
            <mxPoint x="143.291015009082" y="530" as="sourcePoint" />
            <mxPoint x="99.50780854824916" y="553.8542179641659" as="targetPoint" />
          </mxGeometry>
        </mxCell>
        <mxCell id="XHfKNl6-QycrOBSnLCWU-30" value="" style="endArrow=none;html=1;rounded=0;" parent="1" source="XHfKNl6-QycrOBSnLCWU-2" target="XHfKNl6-QycrOBSnLCWU-27" edge="1">
          <mxGeometry relative="1" as="geometry">
            <mxPoint x="184" y="530" as="sourcePoint" />
            <mxPoint x="196.01273888580886" y="590.0636944290441" as="targetPoint" />
          </mxGeometry>
        </mxCell>
        <mxCell id="XHfKNl6-QycrOBSnLCWU-31" value="se Identifica" style="shape=rhombus;perimeter=rhombusPerimeter;whiteSpace=wrap;html=1;align=center;" parent="1" vertex="1">
          <mxGeometry x="340" y="252.5" width="120" height="60" as="geometry" />
        </mxCell>
        <mxCell id="XHfKNl6-QycrOBSnLCWU-32" value="" style="endArrow=none;html=1;rounded=0;" parent="1" source="XHfKNl6-QycrOBSnLCWU-1" target="XHfKNl6-QycrOBSnLCWU-31" edge="1">
          <mxGeometry relative="1" as="geometry">
            <mxPoint x="950" y="372.5" as="sourcePoint" />
            <mxPoint x="1110" y="372.5" as="targetPoint" />
          </mxGeometry>
        </mxCell>
        <mxCell id="XHfKNl6-QycrOBSnLCWU-33" value="" style="endArrow=none;html=1;rounded=0;" parent="1" source="XHfKNl6-QycrOBSnLCWU-31" target="XHfKNl6-QycrOBSnLCWU-3" edge="1">
          <mxGeometry relative="1" as="geometry">
            <mxPoint x="-70" y="345" as="sourcePoint" />
            <mxPoint x="90" y="345" as="targetPoint" />
          </mxGeometry>
        </mxCell>
        <mxCell id="XHfKNl6-QycrOBSnLCWU-34" value="Investiga" style="shape=rhombus;perimeter=rhombusPerimeter;whiteSpace=wrap;html=1;align=center;" parent="1" vertex="1">
          <mxGeometry x="110" y="360" width="120" height="60" as="geometry" />
        </mxCell>
        <mxCell id="XHfKNl6-QycrOBSnLCWU-35" value="" style="endArrow=none;html=1;rounded=0;" parent="1" source="XHfKNl6-QycrOBSnLCWU-3" target="XHfKNl6-QycrOBSnLCWU-34" edge="1">
          <mxGeometry relative="1" as="geometry">
            <mxPoint x="-30" y="385" as="sourcePoint" />
            <mxPoint x="130" y="385" as="targetPoint" />
          </mxGeometry>
        </mxCell>
        <mxCell id="XHfKNl6-QycrOBSnLCWU-36" value="" style="endArrow=none;html=1;rounded=0;" parent="1" source="XHfKNl6-QycrOBSnLCWU-2" target="XHfKNl6-QycrOBSnLCWU-34" edge="1">
          <mxGeometry relative="1" as="geometry">
            <mxPoint x="-50" y="450" as="sourcePoint" />
            <mxPoint x="110" y="450" as="targetPoint" />
          </mxGeometry>
        </mxCell>
        <mxCell id="XHfKNl6-QycrOBSnLCWU-37" value="(1,n)" style="text;html=1;align=center;verticalAlign=middle;resizable=0;points=[];autosize=1;strokeColor=none;fillColor=none;" parent="1" vertex="1">
          <mxGeometry x="510" y="255" width="50" height="30" as="geometry" />
        </mxCell>
        <mxCell id="XHfKNl6-QycrOBSnLCWU-38" value="(0,n)" style="text;html=1;align=center;verticalAlign=middle;resizable=0;points=[];autosize=1;strokeColor=none;fillColor=none;" parent="1" vertex="1">
          <mxGeometry x="230" y="252.5" width="50" height="30" as="geometry" />
        </mxCell>
        <mxCell id="XHfKNl6-QycrOBSnLCWU-39" value="(1,n)" style="text;html=1;align=center;verticalAlign=middle;resizable=0;points=[];autosize=1;strokeColor=none;fillColor=none;" parent="1" vertex="1">
          <mxGeometry x="170" y="305" width="50" height="30" as="geometry" />
        </mxCell>
        <mxCell id="XHfKNl6-QycrOBSnLCWU-40" value="(1,1)" style="text;html=1;align=center;verticalAlign=middle;resizable=0;points=[];autosize=1;strokeColor=none;fillColor=none;" parent="1" vertex="1">
          <mxGeometry x="165" y="450" width="50" height="30" as="geometry" />
        </mxCell>
        <mxCell id="W-V0RHQDBkufOkPQsXg8-1" value="pais" style="shape=table;startSize=30;container=1;collapsible=1;childLayout=tableLayout;fixedRows=1;rowLines=0;fontStyle=1;align=center;resizeLast=1;" vertex="1" parent="1">
          <mxGeometry x="580" y="810" width="180" height="160" as="geometry" />
        </mxCell>
        <mxCell id="W-V0RHQDBkufOkPQsXg8-2" value="" style="shape=tableRow;horizontal=0;startSize=0;swimlaneHead=0;swimlaneBody=0;fillColor=none;collapsible=0;dropTarget=0;points=[[0,0.5],[1,0.5]];portConstraint=eastwest;top=0;left=0;right=0;bottom=1;" vertex="1" parent="W-V0RHQDBkufOkPQsXg8-1">
          <mxGeometry y="30" width="180" height="30" as="geometry" />
        </mxCell>
        <mxCell id="W-V0RHQDBkufOkPQsXg8-3" value="PK" style="shape=partialRectangle;connectable=0;fillColor=none;top=0;left=0;bottom=0;right=0;fontStyle=1;overflow=hidden;" vertex="1" parent="W-V0RHQDBkufOkPQsXg8-2">
          <mxGeometry width="30" height="30" as="geometry">
            <mxRectangle width="30" height="30" as="alternateBounds" />
          </mxGeometry>
        </mxCell>
        <mxCell id="W-V0RHQDBkufOkPQsXg8-4" value="codigo_pais" style="shape=partialRectangle;connectable=0;fillColor=none;top=0;left=0;bottom=0;right=0;align=left;spacingLeft=6;fontStyle=5;overflow=hidden;" vertex="1" parent="W-V0RHQDBkufOkPQsXg8-2">
          <mxGeometry x="30" width="150" height="30" as="geometry">
            <mxRectangle width="150" height="30" as="alternateBounds" />
          </mxGeometry>
        </mxCell>
        <mxCell id="W-V0RHQDBkufOkPQsXg8-5" value="" style="shape=tableRow;horizontal=0;startSize=0;swimlaneHead=0;swimlaneBody=0;fillColor=none;collapsible=0;dropTarget=0;points=[[0,0.5],[1,0.5]];portConstraint=eastwest;top=0;left=0;right=0;bottom=0;" vertex="1" parent="W-V0RHQDBkufOkPQsXg8-1">
          <mxGeometry y="60" width="180" height="30" as="geometry" />
        </mxCell>
        <mxCell id="W-V0RHQDBkufOkPQsXg8-6" value="" style="shape=partialRectangle;connectable=0;fillColor=none;top=0;left=0;bottom=0;right=0;editable=1;overflow=hidden;" vertex="1" parent="W-V0RHQDBkufOkPQsXg8-5">
          <mxGeometry width="30" height="30" as="geometry">
            <mxRectangle width="30" height="30" as="alternateBounds" />
          </mxGeometry>
        </mxCell>
        <mxCell id="W-V0RHQDBkufOkPQsXg8-7" value="Continente" style="shape=partialRectangle;connectable=0;fillColor=none;top=0;left=0;bottom=0;right=0;align=left;spacingLeft=6;overflow=hidden;" vertex="1" parent="W-V0RHQDBkufOkPQsXg8-5">
          <mxGeometry x="30" width="150" height="30" as="geometry">
            <mxRectangle width="150" height="30" as="alternateBounds" />
          </mxGeometry>
        </mxCell>
        <mxCell id="W-V0RHQDBkufOkPQsXg8-8" value="" style="shape=tableRow;horizontal=0;startSize=0;swimlaneHead=0;swimlaneBody=0;fillColor=none;collapsible=0;dropTarget=0;points=[[0,0.5],[1,0.5]];portConstraint=eastwest;top=0;left=0;right=0;bottom=0;" vertex="1" parent="W-V0RHQDBkufOkPQsXg8-1">
          <mxGeometry y="90" width="180" height="30" as="geometry" />
        </mxCell>
        <mxCell id="W-V0RHQDBkufOkPQsXg8-9" value="" style="shape=partialRectangle;connectable=0;fillColor=none;top=0;left=0;bottom=0;right=0;editable=1;overflow=hidden;" vertex="1" parent="W-V0RHQDBkufOkPQsXg8-8">
          <mxGeometry width="30" height="30" as="geometry">
            <mxRectangle width="30" height="30" as="alternateBounds" />
          </mxGeometry>
        </mxCell>
        <mxCell id="W-V0RHQDBkufOkPQsXg8-10" value="cantidad de habitantes" style="shape=partialRectangle;connectable=0;fillColor=none;top=0;left=0;bottom=0;right=0;align=left;spacingLeft=6;overflow=hidden;" vertex="1" parent="W-V0RHQDBkufOkPQsXg8-8">
          <mxGeometry x="30" width="150" height="30" as="geometry">
            <mxRectangle width="150" height="30" as="alternateBounds" />
          </mxGeometry>
        </mxCell>
        <mxCell id="W-V0RHQDBkufOkPQsXg8-11" value="" style="shape=tableRow;horizontal=0;startSize=0;swimlaneHead=0;swimlaneBody=0;fillColor=none;collapsible=0;dropTarget=0;points=[[0,0.5],[1,0.5]];portConstraint=eastwest;top=0;left=0;right=0;bottom=0;" vertex="1" parent="W-V0RHQDBkufOkPQsXg8-1">
          <mxGeometry y="120" width="180" height="30" as="geometry" />
        </mxCell>
        <mxCell id="W-V0RHQDBkufOkPQsXg8-12" value="" style="shape=partialRectangle;connectable=0;fillColor=none;top=0;left=0;bottom=0;right=0;editable=1;overflow=hidden;" vertex="1" parent="W-V0RHQDBkufOkPQsXg8-11">
          <mxGeometry width="30" height="30" as="geometry">
            <mxRectangle width="30" height="30" as="alternateBounds" />
          </mxGeometry>
        </mxCell>
        <mxCell id="W-V0RHQDBkufOkPQsXg8-13" value="Nombre" style="shape=partialRectangle;connectable=0;fillColor=none;top=0;left=0;bottom=0;right=0;align=left;spacingLeft=6;overflow=hidden;" vertex="1" parent="W-V0RHQDBkufOkPQsXg8-11">
          <mxGeometry x="30" width="150" height="30" as="geometry">
            <mxRectangle width="150" height="30" as="alternateBounds" />
          </mxGeometry>
        </mxCell>
        <mxCell id="W-V0RHQDBkufOkPQsXg8-14" value="problema" style="shape=table;startSize=30;container=1;collapsible=1;childLayout=tableLayout;fixedRows=1;rowLines=0;fontStyle=1;align=center;resizeLast=1;" vertex="1" parent="1">
          <mxGeometry x="330" y="690" width="180" height="160" as="geometry" />
        </mxCell>
        <mxCell id="W-V0RHQDBkufOkPQsXg8-15" value="" style="shape=tableRow;horizontal=0;startSize=0;swimlaneHead=0;swimlaneBody=0;fillColor=none;collapsible=0;dropTarget=0;points=[[0,0.5],[1,0.5]];portConstraint=eastwest;top=0;left=0;right=0;bottom=1;" vertex="1" parent="W-V0RHQDBkufOkPQsXg8-14">
          <mxGeometry y="30" width="180" height="30" as="geometry" />
        </mxCell>
        <mxCell id="W-V0RHQDBkufOkPQsXg8-16" value="PK" style="shape=partialRectangle;connectable=0;fillColor=none;top=0;left=0;bottom=0;right=0;fontStyle=1;overflow=hidden;" vertex="1" parent="W-V0RHQDBkufOkPQsXg8-15">
          <mxGeometry width="30" height="30" as="geometry">
            <mxRectangle width="30" height="30" as="alternateBounds" />
          </mxGeometry>
        </mxCell>
        <mxCell id="W-V0RHQDBkufOkPQsXg8-17" value="codigo_problema" style="shape=partialRectangle;connectable=0;fillColor=none;top=0;left=0;bottom=0;right=0;align=left;spacingLeft=6;fontStyle=5;overflow=hidden;" vertex="1" parent="W-V0RHQDBkufOkPQsXg8-15">
          <mxGeometry x="30" width="150" height="30" as="geometry">
            <mxRectangle width="150" height="30" as="alternateBounds" />
          </mxGeometry>
        </mxCell>
        <mxCell id="W-V0RHQDBkufOkPQsXg8-18" value="" style="shape=tableRow;horizontal=0;startSize=0;swimlaneHead=0;swimlaneBody=0;fillColor=none;collapsible=0;dropTarget=0;points=[[0,0.5],[1,0.5]];portConstraint=eastwest;top=0;left=0;right=0;bottom=0;" vertex="1" parent="W-V0RHQDBkufOkPQsXg8-14">
          <mxGeometry y="60" width="180" height="30" as="geometry" />
        </mxCell>
        <mxCell id="W-V0RHQDBkufOkPQsXg8-19" value="" style="shape=partialRectangle;connectable=0;fillColor=none;top=0;left=0;bottom=0;right=0;editable=1;overflow=hidden;" vertex="1" parent="W-V0RHQDBkufOkPQsXg8-18">
          <mxGeometry width="30" height="30" as="geometry">
            <mxRectangle width="30" height="30" as="alternateBounds" />
          </mxGeometry>
        </mxCell>
        <mxCell id="W-V0RHQDBkufOkPQsXg8-20" value="Nombre" style="shape=partialRectangle;connectable=0;fillColor=none;top=0;left=0;bottom=0;right=0;align=left;spacingLeft=6;overflow=hidden;" vertex="1" parent="W-V0RHQDBkufOkPQsXg8-18">
          <mxGeometry x="30" width="150" height="30" as="geometry">
            <mxRectangle width="150" height="30" as="alternateBounds" />
          </mxGeometry>
        </mxCell>
        <mxCell id="W-V0RHQDBkufOkPQsXg8-21" value="" style="shape=tableRow;horizontal=0;startSize=0;swimlaneHead=0;swimlaneBody=0;fillColor=none;collapsible=0;dropTarget=0;points=[[0,0.5],[1,0.5]];portConstraint=eastwest;top=0;left=0;right=0;bottom=0;" vertex="1" parent="W-V0RHQDBkufOkPQsXg8-14">
          <mxGeometry y="90" width="180" height="30" as="geometry" />
        </mxCell>
        <mxCell id="W-V0RHQDBkufOkPQsXg8-22" value="" style="shape=partialRectangle;connectable=0;fillColor=none;top=0;left=0;bottom=0;right=0;editable=1;overflow=hidden;" vertex="1" parent="W-V0RHQDBkufOkPQsXg8-21">
          <mxGeometry width="30" height="30" as="geometry">
            <mxRectangle width="30" height="30" as="alternateBounds" />
          </mxGeometry>
        </mxCell>
        <mxCell id="W-V0RHQDBkufOkPQsXg8-23" value="Prioridad" style="shape=partialRectangle;connectable=0;fillColor=none;top=0;left=0;bottom=0;right=0;align=left;spacingLeft=6;overflow=hidden;" vertex="1" parent="W-V0RHQDBkufOkPQsXg8-21">
          <mxGeometry x="30" width="150" height="30" as="geometry">
            <mxRectangle width="150" height="30" as="alternateBounds" />
          </mxGeometry>
        </mxCell>
        <mxCell id="W-V0RHQDBkufOkPQsXg8-40" value="" style="shape=tableRow;horizontal=0;startSize=0;swimlaneHead=0;swimlaneBody=0;fillColor=none;collapsible=0;dropTarget=0;points=[[0,0.5],[1,0.5]];portConstraint=eastwest;top=0;left=0;right=0;bottom=0;" vertex="1" parent="W-V0RHQDBkufOkPQsXg8-14">
          <mxGeometry y="120" width="180" height="30" as="geometry" />
        </mxCell>
        <mxCell id="W-V0RHQDBkufOkPQsXg8-41" value="FK" style="shape=partialRectangle;connectable=0;fillColor=none;top=0;left=0;bottom=0;right=0;editable=1;overflow=hidden;" vertex="1" parent="W-V0RHQDBkufOkPQsXg8-40">
          <mxGeometry width="30" height="30" as="geometry">
            <mxRectangle width="30" height="30" as="alternateBounds" />
          </mxGeometry>
        </mxCell>
        <mxCell id="W-V0RHQDBkufOkPQsXg8-42" value="id_equipo" style="shape=partialRectangle;connectable=0;fillColor=none;top=0;left=0;bottom=0;right=0;align=left;spacingLeft=6;overflow=hidden;" vertex="1" parent="W-V0RHQDBkufOkPQsXg8-40">
          <mxGeometry x="30" width="150" height="30" as="geometry">
            <mxRectangle width="150" height="30" as="alternateBounds" />
          </mxGeometry>
        </mxCell>
        <mxCell id="W-V0RHQDBkufOkPQsXg8-27" value="equipo" style="shape=table;startSize=30;container=1;collapsible=1;childLayout=tableLayout;fixedRows=1;rowLines=0;fontStyle=1;align=center;resizeLast=1;" vertex="1" parent="1">
          <mxGeometry x="35" y="685" width="180" height="125" as="geometry" />
        </mxCell>
        <mxCell id="W-V0RHQDBkufOkPQsXg8-28" value="" style="shape=tableRow;horizontal=0;startSize=0;swimlaneHead=0;swimlaneBody=0;fillColor=none;collapsible=0;dropTarget=0;points=[[0,0.5],[1,0.5]];portConstraint=eastwest;top=0;left=0;right=0;bottom=1;" vertex="1" parent="W-V0RHQDBkufOkPQsXg8-27">
          <mxGeometry y="30" width="180" height="30" as="geometry" />
        </mxCell>
        <mxCell id="W-V0RHQDBkufOkPQsXg8-29" value="PK" style="shape=partialRectangle;connectable=0;fillColor=none;top=0;left=0;bottom=0;right=0;fontStyle=1;overflow=hidden;" vertex="1" parent="W-V0RHQDBkufOkPQsXg8-28">
          <mxGeometry width="30" height="30" as="geometry">
            <mxRectangle width="30" height="30" as="alternateBounds" />
          </mxGeometry>
        </mxCell>
        <mxCell id="W-V0RHQDBkufOkPQsXg8-30" value="id_equipo" style="shape=partialRectangle;connectable=0;fillColor=none;top=0;left=0;bottom=0;right=0;align=left;spacingLeft=6;fontStyle=5;overflow=hidden;" vertex="1" parent="W-V0RHQDBkufOkPQsXg8-28">
          <mxGeometry x="30" width="150" height="30" as="geometry">
            <mxRectangle width="150" height="30" as="alternateBounds" />
          </mxGeometry>
        </mxCell>
        <mxCell id="W-V0RHQDBkufOkPQsXg8-31" value="" style="shape=tableRow;horizontal=0;startSize=0;swimlaneHead=0;swimlaneBody=0;fillColor=none;collapsible=0;dropTarget=0;points=[[0,0.5],[1,0.5]];portConstraint=eastwest;top=0;left=0;right=0;bottom=0;" vertex="1" parent="W-V0RHQDBkufOkPQsXg8-27">
          <mxGeometry y="60" width="180" height="30" as="geometry" />
        </mxCell>
        <mxCell id="W-V0RHQDBkufOkPQsXg8-32" value="" style="shape=partialRectangle;connectable=0;fillColor=none;top=0;left=0;bottom=0;right=0;editable=1;overflow=hidden;" vertex="1" parent="W-V0RHQDBkufOkPQsXg8-31">
          <mxGeometry width="30" height="30" as="geometry">
            <mxRectangle width="30" height="30" as="alternateBounds" />
          </mxGeometry>
        </mxCell>
        <mxCell id="W-V0RHQDBkufOkPQsXg8-33" value="universidad" style="shape=partialRectangle;connectable=0;fillColor=none;top=0;left=0;bottom=0;right=0;align=left;spacingLeft=6;overflow=hidden;" vertex="1" parent="W-V0RHQDBkufOkPQsXg8-31">
          <mxGeometry x="30" width="150" height="30" as="geometry">
            <mxRectangle width="150" height="30" as="alternateBounds" />
          </mxGeometry>
        </mxCell>
        <mxCell id="W-V0RHQDBkufOkPQsXg8-34" value="" style="shape=tableRow;horizontal=0;startSize=0;swimlaneHead=0;swimlaneBody=0;fillColor=none;collapsible=0;dropTarget=0;points=[[0,0.5],[1,0.5]];portConstraint=eastwest;top=0;left=0;right=0;bottom=0;" vertex="1" parent="W-V0RHQDBkufOkPQsXg8-27">
          <mxGeometry y="90" width="180" height="25" as="geometry" />
        </mxCell>
        <mxCell id="W-V0RHQDBkufOkPQsXg8-35" value="" style="shape=partialRectangle;connectable=0;fillColor=none;top=0;left=0;bottom=0;right=0;editable=1;overflow=hidden;" vertex="1" parent="W-V0RHQDBkufOkPQsXg8-34">
          <mxGeometry width="30" height="25" as="geometry">
            <mxRectangle width="30" height="25" as="alternateBounds" />
          </mxGeometry>
        </mxCell>
        <mxCell id="W-V0RHQDBkufOkPQsXg8-36" value="denominacion" style="shape=partialRectangle;connectable=0;fillColor=none;top=0;left=0;bottom=0;right=0;align=left;spacingLeft=6;overflow=hidden;" vertex="1" parent="W-V0RHQDBkufOkPQsXg8-34">
          <mxGeometry x="30" width="150" height="25" as="geometry">
            <mxRectangle width="150" height="25" as="alternateBounds" />
          </mxGeometry>
        </mxCell>
        <mxCell id="W-V0RHQDBkufOkPQsXg8-43" style="edgeStyle=orthogonalEdgeStyle;rounded=0;orthogonalLoop=1;jettySize=auto;html=1;exitX=0;exitY=0.5;exitDx=0;exitDy=0;" edge="1" parent="1" source="W-V0RHQDBkufOkPQsXg8-28" target="W-V0RHQDBkufOkPQsXg8-40">
          <mxGeometry relative="1" as="geometry">
            <Array as="points">
              <mxPoint x="15" y="730" />
              <mxPoint x="15" y="660" />
              <mxPoint x="260" y="660" />
              <mxPoint x="260" y="825" />
            </Array>
          </mxGeometry>
        </mxCell>
        <mxCell id="W-V0RHQDBkufOkPQsXg8-44" value="se identifica" style="shape=table;startSize=30;container=1;collapsible=1;childLayout=tableLayout;fixedRows=1;rowLines=0;fontStyle=1;align=center;resizeLast=1;" vertex="1" parent="1">
          <mxGeometry x="580" y="690" width="180" height="100" as="geometry" />
        </mxCell>
        <mxCell id="W-V0RHQDBkufOkPQsXg8-45" value="" style="shape=tableRow;horizontal=0;startSize=0;swimlaneHead=0;swimlaneBody=0;fillColor=none;collapsible=0;dropTarget=0;points=[[0,0.5],[1,0.5]];portConstraint=eastwest;top=0;left=0;right=0;bottom=0;" vertex="1" parent="W-V0RHQDBkufOkPQsXg8-44">
          <mxGeometry y="30" width="180" height="30" as="geometry" />
        </mxCell>
        <mxCell id="W-V0RHQDBkufOkPQsXg8-46" value="PK,FK1" style="shape=partialRectangle;connectable=0;fillColor=none;top=0;left=0;bottom=0;right=0;fontStyle=1;overflow=hidden;" vertex="1" parent="W-V0RHQDBkufOkPQsXg8-45">
          <mxGeometry width="60" height="30" as="geometry">
            <mxRectangle width="60" height="30" as="alternateBounds" />
          </mxGeometry>
        </mxCell>
        <mxCell id="W-V0RHQDBkufOkPQsXg8-47" value="codigo_problema" style="shape=partialRectangle;connectable=0;fillColor=none;top=0;left=0;bottom=0;right=0;align=left;spacingLeft=6;fontStyle=5;overflow=hidden;" vertex="1" parent="W-V0RHQDBkufOkPQsXg8-45">
          <mxGeometry x="60" width="120" height="30" as="geometry">
            <mxRectangle width="120" height="30" as="alternateBounds" />
          </mxGeometry>
        </mxCell>
        <mxCell id="W-V0RHQDBkufOkPQsXg8-48" value="" style="shape=tableRow;horizontal=0;startSize=0;swimlaneHead=0;swimlaneBody=0;fillColor=none;collapsible=0;dropTarget=0;points=[[0,0.5],[1,0.5]];portConstraint=eastwest;top=0;left=0;right=0;bottom=1;" vertex="1" parent="W-V0RHQDBkufOkPQsXg8-44">
          <mxGeometry y="60" width="180" height="30" as="geometry" />
        </mxCell>
        <mxCell id="W-V0RHQDBkufOkPQsXg8-49" value="PK,FK2" style="shape=partialRectangle;connectable=0;fillColor=none;top=0;left=0;bottom=0;right=0;fontStyle=1;overflow=hidden;" vertex="1" parent="W-V0RHQDBkufOkPQsXg8-48">
          <mxGeometry width="60" height="30" as="geometry">
            <mxRectangle width="60" height="30" as="alternateBounds" />
          </mxGeometry>
        </mxCell>
        <mxCell id="W-V0RHQDBkufOkPQsXg8-50" value="codigo_pais" style="shape=partialRectangle;connectable=0;fillColor=none;top=0;left=0;bottom=0;right=0;align=left;spacingLeft=6;fontStyle=5;overflow=hidden;" vertex="1" parent="W-V0RHQDBkufOkPQsXg8-48">
          <mxGeometry x="60" width="120" height="30" as="geometry">
            <mxRectangle width="120" height="30" as="alternateBounds" />
          </mxGeometry>
        </mxCell>
        <mxCell id="W-V0RHQDBkufOkPQsXg8-57" style="edgeStyle=orthogonalEdgeStyle;rounded=0;orthogonalLoop=1;jettySize=auto;html=1;exitX=0;exitY=0.5;exitDx=0;exitDy=0;" edge="1" parent="1" source="W-V0RHQDBkufOkPQsXg8-15" target="W-V0RHQDBkufOkPQsXg8-45">
          <mxGeometry relative="1" as="geometry">
            <Array as="points">
              <mxPoint x="290" y="735" />
              <mxPoint x="290" y="660" />
              <mxPoint x="545" y="660" />
              <mxPoint x="545" y="735" />
            </Array>
          </mxGeometry>
        </mxCell>
        <mxCell id="W-V0RHQDBkufOkPQsXg8-58" style="edgeStyle=orthogonalEdgeStyle;rounded=0;orthogonalLoop=1;jettySize=auto;html=1;" edge="1" parent="1" source="W-V0RHQDBkufOkPQsXg8-2" target="W-V0RHQDBkufOkPQsXg8-48">
          <mxGeometry relative="1" as="geometry">
            <Array as="points">
              <mxPoint x="540" y="855" />
              <mxPoint x="540" y="765" />
            </Array>
          </mxGeometry>
        </mxCell>
      </root>
    </mxGraphModel>
  </diagram>
</mxfile>
